{
.appVersion = "983";
copyright = "Copyright © 2014, 2015 Adobe Systems Incorporated (http://www.adobe.com/).";
customParameters = (
{
name = description;
value = "Dr. Ken Lunde (project architect, glyph set definition & overall production); Masataka HATTORI 服部正貴 (production & ideograph elements)";
},
{
name = license;
value = "This Font Software is licensed under the SIL Open Font License, Version 1.1. This Font Software is distributed on an \"AS IS\" BASIS, WITHOUT WARRANTIES OR CONDITIONS OF ANY KIND, either express or implied. See the SIL Open Font License for the specific language, permissions and limitations governing your use of this Font Software.";
},
{
name = licenseURL;
value = "http://scripts.sil.org/OFL";
},
{
name = vendorID;
value = GOOG;
},
{
name = panose;
value = (
2,
11,
3,
0,
0,
0,
0,
0,
0,
0
);
},
{
name = unicodeRanges;
value = (
0,
1,
28,
29,
36,
42,
43,
44,
45,
48,
49,
50,
51,
52,
54,
55,
56,
57,
59,
61,
65,
66,
68
);
},
{
name = codePageRanges;
value = (
1252,
1250,
1251,
1258,
932,
936,
949,
1361
);
},
{
name = ROS;
value = "Adobe, Identity, 0";
},
{
name = glyphOrder;
value = (
.notdef,
cid00001,
cid00002,
cid00003,
cid00004,
cid00005,
cid00006,
cid00007,
cid00008,
cid00009,
cid00010,
cid00011,
cid00012,
cid00013,
cid00014,
cid00015,
cid00016,
cid00017,
cid00018,
cid00019,
cid00020,
cid00021,
cid00022,
cid00023,
cid00024,
cid00025,
cid00026,
cid00027,
cid00028,
cid00029,
cid00030,
cid00031,
cid00032,
cid00033,
cid00034,
cid00035,
cid00036,
cid00037,
cid00038,
cid00039,
cid00040,
cid00041,
cid00042,
cid00043,
cid00044,
cid00045,
cid00046,
cid00047,
cid00048,
cid00049,
cid00050,
cid00051,
cid00052,
cid00053,
cid00054,
cid00055,
cid00056,
cid00057,
cid00058,
cid00059,
cid00060,
cid00061,
cid00062,
cid00063,
cid00064,
cid00065,
cid00066,
cid00067,
cid00068,
cid00069,
cid00070,
cid00071,
cid00072,
cid00073,
cid00074,
cid00075,
cid00076,
cid00077,
cid00078,
cid00079,
cid00080,
cid00081,
cid00082,
cid00083,
cid00084,
cid00085,
cid00086,

glyphs = (
{
glyphname = .notdef;
lastChange = "2017-04-15 13:10:40 +0000";
layers = (
{
layerId = "4EDCEA59-8923-422A-9139-CA56D29A2736";
paths = (
{
closed = 1;
nodes = (
"100 -120 LINE",
"900 -120 LINE",
"900 880 LINE",
"100 880 LINE"
);
},
{
closed = 1;
nodes = (
"500 421 LINE",
"182 830 LINE",
"818 830 LINE"
);
},
{
closed = 1;
nodes = (
"532 380 LINE",
"850 789 LINE",
"850 -29 LINE"
);
},
{
closed = 1;
nodes = (
"182 -70 LINE",
"500 339 LINE",
"818 -70 LINE"
);
},
{
closed = 1;
nodes = (
"150 789 LINE",
"468 380 LINE",
"150 -29 LINE"
);
}
);
width = 1000;
}
);
note = .notdef;
},
{
glyphname = "comma-han";
lastChange = "2017-04-15 13:10:40 +0000";
layers = (
{
layerId = "4EDCEA59-8923-422A-9139-CA56D29A2736";
paths = (
{
closed = 1;
nodes = (
"330 -10 LINE",
"260 69 OFFCURVE",
"174 155 OFFCURVE",
"101 213 CURVE",
"60 176 LINE",
"132 119 OFFCURVE",
"218 34 OFFCURVE",
"285 -48 CURVE"
);
}
);
vertWidth = 1000;
width = 560;
}
);
note = cid01390;
unicode = 3001;
},
{
glyphname = ellipsis;
lastChange = "2017-04-15 13:10:40 +0000";
layers = (
{
layerId = "4EDCEA59-8923-422A-9139-CA56D29A2736";
paths = (
{
closed = 1;
nodes = (
"111 348 OFFCURVE",
"135 324 OFFCURVE",
"167 324 CURVE SMOOTH",
"199 324 OFFCURVE",
"223 348 OFFCURVE",
"223 380 CURVE SMOOTH",
"223 412 OFFCURVE",
"199 436 OFFCURVE",
"167 436 CURVE SMOOTH",
"135 436 OFFCURVE",
"111 412 OFFCURVE",
"111 380 CURVE SMOOTH"
);
},
{
closed = 1;
nodes = (
"444 348 OFFCURVE",
"468 324 OFFCURVE",
"500 324 CURVE SMOOTH",
"532 324 OFFCURVE",
"556 348 OFFCURVE",
"556 380 CURVE SMOOTH",
"556 412 OFFCURVE",
"532 436 OFFCURVE",
"500 436 CURVE SMOOTH",
"468 436 OFFCURVE",
"444 412 OFFCURVE",
"444 380 CURVE SMOOTH"
);
},
{
closed = 1;
nodes = (
"777 348 OFFCURVE",
"801 324 OFFCURVE",
"833 324 CURVE SMOOTH",
"865 324 OFFCURVE",
"889 348 OFFCURVE",
"889 380 CURVE SMOOTH",
"889 412 OFFCURVE",
"865 436 OFFCURVE",
"833 436 CURVE SMOOTH",
"801 436 OFFCURVE",
"777 412 OFFCURVE",
"777 380 CURVE SMOOTH"
);
}
);
width = 1000;
}
);
note = cid00728;
unicode = 2026;
},
{
glyphname = "period-han";
lastChange = "2017-04-15 13:10:40 +0000";
layers = (
{
layerId = "4EDCEA59-8923-422A-9139-CA56D29A2736";
paths = (
{
closed = 1;
nodes = (
"146 242 OFFCURVE",
"80 176 OFFCURVE",
"80 95 CURVE SMOOTH",
"80 14 OFFCURVE",
"146 -52 OFFCURVE",
"227 -52 CURVE SMOOTH",
"308 -52 OFFCURVE",
"373 14 OFFCURVE",
"373 95 CURVE SMOOTH",
"373 176 OFFCURVE",
"308 242 OFFCURVE",
"227 242 CURVE SMOOTH"
);
},
{
closed = 1;
nodes = (
"167 -13 OFFCURVE",
"119 35 OFFCURVE",
"119 95 CURVE SMOOTH",
"119 154 OFFCURVE",
"167 203 OFFCURVE",
"227 203 CURVE SMOOTH",
"287 203 OFFCURVE",
"335 154 OFFCURVE",
"335 95 CURVE SMOOTH",
"335 35 OFFCURVE",
"287 -13 OFFCURVE",
"227 -13 CURVE SMOOTH"
);
}
);
vertWidth = 1000;
width = 773;
}
);
note = cid01391;
unicode = 3002;
},
{
glyphname = colon.full;
lastChange = "2017-04-15 13:10:40 +0000";
layers = (
{
layerId = "4EDCEA59-8923-422A-9139-CA56D29A2736";
paths = (
{
closed = 1;
nodes = (
"297 560 OFFCURVE",
"328 584 OFFCURVE",
"328 624 CURVE SMOOTH",
"328 665 OFFCURVE",
"297 688 OFFCURVE",
"264 688 CURVE SMOOTH",
"231 688 OFFCURVE",
"200 665 OFFCURVE",
"200 624 CURVE SMOOTH",
"200 584 OFFCURVE",
"231 560 OFFCURVE",
"264 560 CURVE SMOOTH"
);
},
{
closed = 1;
nodes = (
"297 64 OFFCURVE",
"328 87 OFFCURVE",
"328 127 CURVE SMOOTH",
"328 168 OFFCURVE",
"297 191 OFFCURVE",
"264 191 CURVE SMOOTH",
"231 191 OFFCURVE",
"200 168 OFFCURVE",
"200 127 CURVE SMOOTH",
"200 87 OFFCURVE",
"231 64 OFFCURVE",
"264 64 CURVE SMOOTH"
);
}
);
vertWidth = 1000;
width = 528;
}
);
note = cid59017;
unicode = FF1A;
},
{
glyphname = exclam.full;
lastChange = "2017-04-15 13:10:40 +0000";
layers = (
{
layerId = "4EDCEA59-8923-422A-9139-CA56D29A2736";
paths = (
{
closed = 1;
nodes = (
"244 232 LINE",
"288 232 LINE",
"306 648 LINE",
"307 748 LINE",
"225 748 LINE",
"226 648 LINE"
);
},
{
closed = 1;
nodes = (
"300 -2 OFFCURVE",
"332 22 OFFCURVE",
"332 64 CURVE SMOOTH",
"332 106 OFFCURVE",
"300 131 OFFCURVE",
"266 131 CURVE SMOOTH",
"232 131 OFFCURVE",
"200 106 OFFCURVE",
"200 64 CURVE SMOOTH",
"200 22 OFFCURVE",
"232 -2 OFFCURVE",
"266 -2 CURVE SMOOTH"
);
}
);
width = 462;
}
);
note = cid58992;
unicode = FF01;
},
{
glyphname = question.full;
lastChange = "2017-04-15 13:10:40 +0000";
layers = (
{
layerId = "4EDCEA59-8923-422A-9139-CA56D29A2736";
paths = (
{
closed = 1;
nodes = (
"451 232 LINE",
"418 390 OFFCURVE",
"669 428 OFFCURVE",
"669 582 CURVE SMOOTH",
"669 687 OFFCURVE",
"588 762 OFFCURVE",
"449 762 CURVE SMOOTH",
"340 762 OFFCURVE",
"268 717 OFFCURVE",
"200 649 CURVE",
"237 615 LINE",
"300 681 OFFCURVE",
"371 712 OFFCURVE",
"444 712 CURVE SMOOTH",
"560 712 OFFCURVE",
"610 652 OFFCURVE",
"610 578 CURVE SMOOTH",
"610 455 OFFCURVE",
"361 405 OFFCURVE",
"397 232 CURVE"
);
},
{
closed = 1;
nodes = (
"361 22 OFFCURVE",
"392 -2 OFFCURVE",
"427 -2 CURVE SMOOTH",
"461 -2 OFFCURVE",
"493 22 OFFCURVE",
"493 65 CURVE SMOOTH",
"493 107 OFFCURVE",
"461 131 OFFCURVE",
"427 131 CURVE SMOOTH",
"392 131 OFFCURVE",
"361 107 OFFCURVE",
"361 65 CURVE SMOOTH"
);
}
);
width = 799;
}
);
note = cid59022;
unicode = FF1F;
},
{
glyphname = semicolon.full;
lastChange = "2017-04-15 13:10:40 +0000";
layers = (
{
layerId = "4EDCEA59-8923-422A-9139-CA56D29A2736";
paths = (
{
closed = 1;
nodes = (
"330 560 OFFCURVE",
"361 584 OFFCURVE",
"361 624 CURVE SMOOTH",
"361 665 OFFCURVE",
"330 688 OFFCURVE",
"297 688 CURVE SMOOTH",
"264 688 OFFCURVE",
"233 665 OFFCURVE",
"233 624 CURVE SMOOTH",
"233 584 OFFCURVE",
"264 560 OFFCURVE",
"297 560 CURVE SMOOTH"
);
},
{
closed = 1;
nodes = (
"217 -87 LINE",
"312 -47 OFFCURVE",
"375 31 OFFCURVE",
"375 143 CURVE SMOOTH",
"375 207 OFFCURVE",
"350 248 OFFCURVE",
"303 248 CURVE SMOOTH",
"271 248 OFFCURVE",
"241 229 OFFCURVE",
"241 187 CURVE SMOOTH",
"241 145 OFFCURVE",
"268 126 OFFCURVE",
"303 126 CURVE SMOOTH",
"310 126 OFFCURVE",
"318 127 OFFCURVE",
"325 129 CURVE",
"322 43 OFFCURVE",
"280 -12 OFFCURVE",
"200 -51 CURVE"
);
}
);
vertWidth = 1000;
width = 575;
}
);
note = cid59018;
unicode = FF1B;
},
{
glyphname = anglebracketleft;
lastChange = "2017-04-15 13:10:40 +0000";
layers = (
{
layerId = "4EDCEA59-8923-422A-9139-CA56D29A2736";
paths = (
{
closed = 1;
nodes = (
"255 380 LINE",
"545 822 LINE",
"503 842 LINE",
"200 380 LINE",
"503 -82 LINE",
"545 -62 LINE"
);
}
);
vertWidth = 1000;
width = 596;
}
);
note = cid01397;
unicode = 3008;
},
{
glyphname = anglebracketright;
lastChange = "2017-04-15 13:10:40 +0000";
layers = (
{
layerId = "4EDCEA59-8923-422A-9139-CA56D29A2736";
paths = (
{
closed = 1;
nodes = (
"93 -82 LINE",
"396 380 LINE",
"93 842 LINE",
"51 822 LINE",
"341 380 LINE",
"51 -62 LINE"
);
}
);
vertWidth = 1000;
width = 596;
}
);
note = cid01398;
unicode = 3009;
},
{
glyphname = blacklenticularbracketleft;
lastChange = "2017-04-15 13:10:40 +0000";
layers = (
{
layerId = "4EDCEA59-8923-422A-9139-CA56D29A2736";
paths = (
{
closed = 1;
nodes = (
"200 842 LINE",
"200 -82 LINE",
"492 -82 LINE",
"492 -77 LINE",
"383 14 OFFCURVE",
"294 179 OFFCURVE",
"294 380 CURVE SMOOTH",
"294 581 OFFCURVE",
"383 746 OFFCURVE",
"492 837 CURVE",
"492 842 LINE"
);
}
);
vertWidth = 1000;
width = 530;
}
);
note = cid01405;
unicode = 3010;
},
{
glyphname = blacklenticularbracketright;
lastChange = "2017-04-15 13:10:40 +0000";
layers = (
{
layerId = "4EDCEA59-8923-422A-9139-CA56D29A2736";
paths = (
{
closed = 1;
nodes = (
"330 842 LINE",
"38 842 LINE",
"38 837 LINE",
"147 746 OFFCURVE",
"236 581 OFFCURVE",
"236 380 CURVE SMOOTH",
"236 179 OFFCURVE",
"147 14 OFFCURVE",
"38 -77 CURVE",
"38 -82 LINE",
"330 -82 LINE"
);
}
);
vertWidth = 1000;
width = 530;
}
);
note = cid01406;
unicode = 3011;
},
{
glyphname = braceleft.full;
lastChange = "2017-04-15 13:10:40 +0000";
layers = (
{
layerId = "4EDCEA59-8923-422A-9139-CA56D29A2736";
paths = (
{
closed = 1;
nodes = (
"448 -94 LINE",
"448 -58 LINE",
"414 -58 LINE SMOOTH",
"349 -58 OFFCURVE",
"332 -22 OFFCURVE",
"332 53 CURVE SMOOTH",
"332 123 OFFCURVE",
"339 184 OFFCURVE",
"339 262 CURVE SMOOTH",
"339 328 OFFCURVE",
"325 365 OFFCURVE",
"280 378 CURVE",
"280 382 LINE",
"325 395 OFFCURVE",
"339 432 OFFCURVE",
"339 498 CURVE SMOOTH",
"339 577 OFFCURVE",
"332 636 OFFCURVE",
"332 707 CURVE SMOOTH",
"332 783 OFFCURVE",
"349 818 OFFCURVE",
"414 818 CURVE SMOOTH",
"448 818 LINE",
"448 854 LINE",
"408 854 LINE SMOOTH",
"326 854 OFFCURVE",
"285 823 OFFCURVE",
"285 711 CURVE SMOOTH",
"285 631 OFFCURVE",
"294 564 OFFCURVE",
"294 487 CURVE SMOOTH",
"294 444 OFFCURVE",
"276 400 OFFCURVE",
"200 400 CURVE",
"200 360 LINE",
"276 360 OFFCURVE",
"294 317 OFFCURVE",
"294 273 CURVE SMOOTH",
"294 197 OFFCURVE",
"285 130 OFFCURVE",
"285 49 CURVE SMOOTH",
"285 -63 OFFCURVE",
"326 -94 OFFCURVE",
"408 -94 CURVE SMOOTH"
);
}
);
vertWidth = 1000;
width = 486;
}
);
note = cid59082;
unicode = FF5B;
},
{
glyphname = braceright.full;
lastChange = "2017-04-15 13:10:40 +0000";
layers = (
{
layerId = "4EDCEA59-8923-422A-9139-CA56D29A2736";
paths = (
{
closed = 1;
nodes = (
"78 -94 LINE SMOOTH",
"160 -94 OFFCURVE",
"201 -63 OFFCURVE",
"201 49 CURVE SMOOTH",
"201 130 OFFCURVE",
"192 197 OFFCURVE",
"192 273 CURVE SMOOTH",
"192 317 OFFCURVE",
"210 360 OFFCURVE",
"286 360 CURVE",
"286 400 LINE",
"210 400 OFFCURVE",
"192 444 OFFCURVE",
"192 487 CURVE SMOOTH",
"192 564 OFFCURVE",
"201 631 OFFCURVE",
"201 711 CURVE SMOOTH",
"201 823 OFFCURVE",
"160 854 OFFCURVE",
"78 854 CURVE SMOOTH",
"38 854 LINE",
"38 818 LINE",
"72 818 LINE SMOOTH",
"137 818 OFFCURVE",
"154 783 OFFCURVE",
"154 707 CURVE SMOOTH",
"154 636 OFFCURVE",
"147 577 OFFCURVE",
"147 498 CURVE SMOOTH",
"147 432 OFFCURVE",
"161 395 OFFCURVE",
"206 382 CURVE",
"206 378 LINE",
"161 365 OFFCURVE",
"147 328 OFFCURVE",
"147 262 CURVE SMOOTH",
"147 184 OFFCURVE",
"154 123 OFFCURVE",
"154 53 CURVE SMOOTH",
"154 -22 OFFCURVE",
"137 -58 OFFCURVE",
"72 -58 CURVE SMOOTH",
"38 -58 LINE",
"38 -94 LINE"
);
}
);
vertWidth = 1000;
width = 486;
}
);
note = cid59084;
unicode = FF5D;
},
{
glyphname = cornerbracketleft;
lastChange = "2017-04-15 13:10:40 +0000";
layers = (
{
layerId = "4EDCEA59-8923-422A-9139-CA56D29A2736";
paths = (
{
closed = 1;
nodes = (
"200 191 LINE",
"248 191 LINE",
"248 796 LINE",
"506 796 LINE",
"506 842 LINE",
"200 842 LINE"
);
}
);
vertWidth = 1000;
width = 544;
}
);
note = cid01401;
unicode = 300C;
},
{
glyphname = cornerbracketright;
lastChange = "2017-04-15 13:10:40 +0000";
layers = (
{
layerId = "4EDCEA59-8923-422A-9139-CA56D29A2736";
paths = (
{
closed = 1;
nodes = (
"344 569 LINE",
"296 569 LINE",
"296 -36 LINE",
"38 -36 LINE",
"38 -82 LINE",
"344 -82 LINE"
);
}
);
vertWidth = 1000;
width = 544;
}
);
note = cid01402;
unicode = 300D;
},
{
glyphname = dblanglebracketleft;
lastChange = "2017-04-15 13:10:40 +0000";
layers = (
{
layerId = "4EDCEA59-8923-422A-9139-CA56D29A2736";
paths = (
{
closed = 1;
nodes = (
"94 380 LINE",
"325 829 LINE",
"288 842 LINE",
"51 380 LINE",
"288 -82 LINE",
"325 -69 LINE"
);
},
{
closed = 1;
nodes = (
"243 380 LINE",
"474 829 LINE",
"437 842 LINE",
"200 380 LINE",
"437 -82 LINE",
"474 -69 LINE"
);
}
);
vertWidth = 1000;
width = 515;
}
);
note = cid01399;
unicode = 300A;
},
{
glyphname = dblanglebracketright;
lastChange = "2017-04-15 13:10:40 +0000";
layers = (
{
layerId = "4EDCEA59-8923-422A-9139-CA56D29A2736";
paths = (
{
closed = 1;
nodes = (
"227 -82 LINE",
"464 380 LINE",
"227 842 LINE",
"190 829 LINE",
"421 380 LINE",
"190 -69 LINE"
);
},
{
closed = 1;
nodes = (
"78 -82 LINE",
"315 380 LINE",
"78 842 LINE",
"41 829 LINE",
"272 380 LINE",
"41 -69 LINE"
);
}
);
vertWidth = 1000;
width = 515;
}
);
note = cid01400;
unicode = 300B;
},
{
glyphname = tortoiseshellbracketleft;
lastChange = "2017-04-15 13:10:40 +0000";
layers = (
{
layerId = "4EDCEA59-8923-422A-9139-CA56D29A2736";
paths = (
{
closed = 1;
nodes = (
"405 -94 LINE",
"429 -58 LINE",
"247 59 LINE",
"247 701 LINE",
"429 818 LINE",
"405 854 LINE",
"200 720 LINE",
"200 40 LINE"
);
}
);
vertWidth = 1000;
width = 476;
}
);
note = cid01409;
unicode = 3014;
},
{
glyphname = tortoiseshellbracketright;
lastChange = "2017-04-15 13:10:40 +0000";
layers = (
{
layerId = "4EDCEA59-8923-422A-9139-CA56D29A2736";
paths = (
{
closed = 1;
nodes = (
"276 40 LINE",
"276 720 LINE",
"71 854 LINE",
"47 818 LINE",
"229 701 LINE",
"229 59 LINE",
"47 -58 LINE",
"71 -94 LINE"
);
}
);
vertWidth = 1000;
width = 476;
}
);
note = cid01410;
unicode = 3015;
},
{
glyphname = whitecornerbracketleft;
lastChange = "2017-04-15 13:10:40 +0000";
layers = (
{
layerId = "4EDCEA59-8923-422A-9139-CA56D29A2736";
paths = (
{
closed = 1;
nodes = (
"563 699 LINE",
"563 842 LINE",
"200 842 LINE",
"200 179 LINE",
"358 179 LINE",
"358 699 LINE"
);
},
{
closed = 1;
nodes = (
"537 816 LINE",
"537 726 LINE",
"332 726 LINE",
"332 206 LINE",
"227 206 LINE",
"227 816 LINE"
);
}
);
vertWidth = 1000;
width = 601;
}
);
note = cid01403;
unicode = 300E;
},
{
glyphname = whitecornerbracketright;
lastChange = "2017-04-15 13:10:40 +0000";
layers = (
{
layerId = "4EDCEA59-8923-422A-9139-CA56D29A2736";
paths = (
{
closed = 1;
nodes = (
"38 61 LINE",
"38 -82 LINE",
"401 -82 LINE",
"401 581 LINE",
"243 581 LINE",
"243 61 LINE"
);
},
{
closed = 1;
nodes = (
"64 -56 LINE",
"64 34 LINE",
"269 34 LINE",
"269 554 LINE",
"374 554 LINE",
"374 -56 LINE"
);
}
);
vertWidth = 1000;
width = 601;
}
);
note = cid01404;
unicode = 300F;
},
{
glyphname = whitelenticularbracketleft;
lastChange = "2017-04-15 13:10:40 +0000";
layers = (
{
layerId = "4EDCEA59-8923-422A-9139-CA56D29A2736";
paths = (
{
closed = 1;
nodes = (
"543 -65 LINE",
"385 6 OFFCURVE",
"280 160 OFFCURVE",
"280 380 CURVE SMOOTH",
"280 600 OFFCURVE",
"385 754 OFFCURVE",
"543 825 CURVE",
"543 842 LINE",
"200 842 LINE",
"200 -82 LINE",
"543 -82 LINE"
);
},
{
closed = 1;
nodes = (
"223 -60 LINE",
"223 820 LINE",
"483 820 LINE",
"387 762 OFFCURVE",
"258 630 OFFCURVE",
"258 380 CURVE SMOOTH",
"258 130 OFFCURVE",
"387 -2 OFFCURVE",
"483 -60 CURVE"
);
}
);
vertWidth = 1000;
width = 581;
}
);
note = cid01411;
unicode = 3016;
},
{
glyphname = whitelenticularbracketright;
lastChange = "2017-04-15 13:10:40 +0000";
layers = (
{
layerId = "4EDCEA59-8923-422A-9139-CA56D29A2736";
paths = (
{
closed = 1;
nodes = (
"38 -82 LINE",
"381 -82 LINE",
"381 842 LINE",
"38 842 LINE",
"38 825 LINE",
"196 754 OFFCURVE",
"301 600 OFFCURVE",
"301 380 CURVE SMOOTH",
"301 160 OFFCURVE",
"196 6 OFFCURVE",
"38 -65 CURVE"
);
},
{
closed = 1;
nodes = (
"98 -60 LINE",
"194 -2 OFFCURVE",
"323 130 OFFCURVE",
"323 380 CURVE SMOOTH",
"323 630 OFFCURVE",
"194 762 OFFCURVE",
"98 820 CURVE",
"358 820 LINE",
"358 -60 LINE"
);
}
);
vertWidth = 1000;
width = 581;
}
);
note = cid01412;
unicode = 3017;
},
{
glyphname = bracketleft.full;
lastChange = "2017-04-15 13:10:40 +0000";
layers = (
{
layerId = "4EDCEA59-8923-422A-9139-CA56D29A2736";
paths = (
{
closed = 1;
nodes = (
"200 -82 LINE",
"451 -82 LINE",
"451 -46 LINE",
"246 -46 LINE",
"246 806 LINE",
"451 806 LINE",
"451 842 LINE",
"200 842 LINE"
);
}
);
vertWidth = 1000;
width = 489;
}
);
note = cid59050;
unicode = FF3B;
},
{
glyphname = bracketright.full;
lastChange = "2017-04-15 13:10:40 +0000";
layers = (
{
layerId = "4EDCEA59-8923-422A-9139-CA56D29A2736";
paths = (
{
closed = 1;
nodes = (
"289 842 LINE",
"38 842 LINE",
"38 806 LINE",
"243 806 LINE",
"243 -46 LINE",
"38 -46 LINE",
"38 -82 LINE",
"289 -82 LINE"
);
}
);
vertWidth = 1000;
width = 489;
}
);
note = cid59052;
unicode = FF3D;
},
{
glyphname = parenleft.full;
lastChange = "2017-04-15 13:10:40 +0000";
layers = (
{
layerId = "4EDCEA59-8923-422A-9139-CA56D29A2736";
paths = (
{
closed = 1;
nodes = (
"439 -69 LINE",
"316 57 OFFCURVE",
"249 210 OFFCURVE",
"249 380 CURVE SMOOTH",
"249 550 OFFCURVE",
"316 703 OFFCURVE",
"439 829 CURVE",
"400 853 LINE",
"273 722 OFFCURVE",
"200 565 OFFCURVE",
"200 380 CURVE SMOOTH",
"200 195 OFFCURVE",
"273 38 OFFCURVE",
"400 -93 CURVE"
);
}
);
vertWidth = 1000;
width = 486;
}
);
note = cid58999;
unicode = FF08;
},
{
glyphname = parenright.full;
lastChange = "2017-04-15 13:10:40 +0000";
layers = (
{
layerId = "4EDCEA59-8923-422A-9139-CA56D29A2736";
paths = (
{
closed = 1;
nodes = (
"47 829 LINE",
"170 703 OFFCURVE",
"237 550 OFFCURVE",
"237 380 CURVE SMOOTH",
"237 210 OFFCURVE",
"170 57 OFFCURVE",
"47 -69 CURVE",
"86 -93 LINE",
"213 38 OFFCURVE",
"286 195 OFFCURVE",
"286 380 CURVE SMOOTH",
"286 565 OFFCURVE",
"213 722 OFFCURVE",
"86 853 CURVE"
);
}
);
vertWidth = 1000;
width = 486;
}
);
note = cid59000;
unicode = FF09;
},
{
glyphname = "dot-kata";
lastChange = "2017-04-15 13:10:40 +0000";
layers = (
{
layerId = "4EDCEA59-8923-422A-9139-CA56D29A2736";
paths = (
{
closed = 1;
nodes = (
"200 328 OFFCURVE",
"242 286 OFFCURVE",
"294 286 CURVE SMOOTH",
"346 286 OFFCURVE",
"388 328 OFFCURVE",
"388 380 CURVE SMOOTH",
"388 432 OFFCURVE",
"346 474 OFFCURVE",
"294 474 CURVE SMOOTH",
"242 474 OFFCURVE",
"200 432 OFFCURVE",
"200 380 CURVE SMOOTH"
);
}
);
vertWidth = 1000;
width = 588;
}
);
note = cid01637;
unicode = 30FB;
},
